<svg xmlns="http://www.w3.org/2000/svg" width="393.6702880859375" height="411.814697265625" viewBox="-95.62006378173828 -116.03447723388672 393.6702880859375 411.814697265625"><title>Neo4j Graph Visualization</title><desc>Created using Neo4j (http://www.neo4j.com/)</desc><g class="layer relationships"><g class="relationship" transform="translate(99.21893649802944 -87.03447354905198) rotate(385.36503988324955)"><path class="outline" fill="#A5ABB6" stroke="none" d="M 24.018736134675446,-6.953439040707552 L 24.277555179777966,-5.987513214418485 A 107.80039695982401 107.80039695982401 0 0 1 38.56919879419024,-8.798235548864398 L 38.44295480462985,-9.790234770184597 A 108.80039695982401 108.80039695982401 0 0 0 24.018736134675446,-6.953439040707552 Z M 62.501456872764905,-10.169881441168457 L 62.406575730980244,-9.174392833029898 A 107.80039695982401 107.80039695982401 0 0 1 76.77978864003605,-6.81600611459804 L 76.09515003893853,-3.8951723319450062 L 83.70917389974271,-5.705321675812667 L 77.69264010816607,-10.71045115813542 L 77.00800150706856,-7.789617375482385 A 108.80039695982401 108.80039695982401 0 0 0 62.501456872764905,-10.169881441168457"/><text text-anchor="middle" pointer-events="none" font-size="8px" fill="#000000" x="50.469567666970306" y="-7.147241080802672" font-family="sans-serif">road</text></g><g class="relationship" transform="translate(196.85208380984452 -40.74783008737877) rotate(410.5784135802214)"><path class="outline" fill="#A5ABB6" stroke="none" d="M 21.40063509461097,-12.933012701892217 L 21.90063509461097,-12.06698729810778 A 66.38332371606073 66.38332371606073 0 0 1 42.412606472435684,-19.738459175105575 L 42.22159930722594,-20.720047817480037 A 67.38332371606073 67.38332371606073 0 0 0 21.40063509461097,-12.933012701892217 Z M 64.07814603123406,-21.358828265321904 L 63.94479183344386,-20.36775982271476 A 66.38332371606073 66.38332371606073 0 0 1 84.86978292686739,-13.907326531950565 L 83.5240766120589,-11.22608157591156 L 91.35030554342647,-11.214219290070622 L 86.66405801327869,-17.482319806669235 L 85.31835169847021,-14.801074850630231 A 67.38332371606073 67.38332371606073 0 0 0 64.07814603123406,-21.358828265321904"/><text text-anchor="middle" pointer-events="none" font-size="8px" fill="#000000" x="53.13839612854518" y="-18.432119984868493" font-family="sans-serif">trek</text></g><g class="relationship" transform="translate(269.05023803054615 47.08015654120634) rotate(499.0977088320924)"><path class="outline" fill="#A5ABB6" stroke="none" d="M 21.40063509461097,12.933012701892217 L 21.90063509461097,12.06698729810778 A 66.72576759564365 66.72576759564365 0 0 0 41.507928639484504,19.573286982554762 L 41.30177754151127,20.551807153427305 A 67.72576759564365 67.72576759564365 0 0 1 21.40063509461097,12.933012701892217 Z M 65.34187555389077,21.252460470061706 L 65.1930642960896,20.263594852522274 A 66.72576759564365 66.72576759564365 0 0 0 85.2042493471503,13.9119834066156 L 83.8581098481119,11.23095590785162 L 91.68433676077265,11.217829158653329 L 86.99910201253482,17.486686738300907 L 85.65296251349642,14.805659239536928 A 67.72576759564365 67.72576759564365 0 0 1 65.34187555389077,21.252460470061706"/><text text-anchor="middle" pointer-events="none" font-size="8px" fill="#000000" x="53.3050424942526" y="24.478011039990875" transform="rotate(180 53.3050424942526 21.478011039990875)" font-family="sans-serif">road</text></g><g class="relationship" transform="translate(182.86610006574284 121.74123127576881) rotate(474.34162279399595)"><path class="outline" fill="#A5ABB6" stroke="none" d="M 25 0.5 L 46.362582052234835 0.5 L 46.362582052234835 -0.5 L 25 -0.5 Z M 68.1625822429697 0.5 L 89.52516429520453 0.5 L 89.52516429520453 3.5 L 96.52516429520453 0 L 89.52516429520453 -3.5 L 89.52516429520453 -0.5 L 68.1625822429697 -0.5 Z"/><text text-anchor="middle" pointer-events="none" font-size="8px" fill="#000000" x="57.26258214760227" y="3" transform="rotate(180 57.26258214760227 0)" font-family="sans-serif">trek</text></g><g class="relationship" transform="translate(99.21893649802944 -87.03447354905198) rotate(385.36503988324955)"><path class="outline" fill="#A5ABB6" stroke="none" d="M 24.018736134675446,6.953439040707552 L 24.277555179777966,5.987513214418485 A 107.80039695982401 107.80039695982401 0 0 0 39.656043309305815,8.930944436739665 L 39.53988132821448,9.924174719276863 A 108.80039695982401 108.80039695982401 0 0 1 24.018736134675446,6.953439040707552 Z M 61.40085037961725,10.269143998799848 L 61.31608506942789,9.272743054305863 A 107.80039695982401 107.80039695982401 0 0 0 76.77978864003605,6.81600611459804 L 76.09515003893853,3.8951723319450062 L 83.70917389974271,5.705321675812667 L 77.69264010816607,10.71045115813542 L 77.00800150706856,7.789617375482385 A 108.80039695982401 108.80039695982401 0 0 1 61.40085037961725,10.269143998799848"/><text text-anchor="middle" pointer-events="none" font-size="8px" fill="#000000" x="50.469567666970306" y="13.147241080802672" font-family="sans-serif">trek</text></g><g class="relationship" transform="translate(196.85208380984452 -40.74783008737877) rotate(410.5784135802214)"><path class="outline" fill="#A5ABB6" stroke="none" d="M 25 0.5 L 27.122006373739346 0.5 L 27.122006373739346 -0.5 L 25 -0.5 Z M 79.57200713667879 0.5 L 81.69401351041815 0.5 L 81.69401351041815 3.5 L 88.69401351041815 0 L 81.69401351041815 -3.5 L 81.69401351041815 -0.5 L 79.57200713667879 -0.5 Z"/><text text-anchor="middle" pointer-events="none" font-size="8px" fill="#000000" x="53.34700675520907" y="3" font-family="sans-serif">twowheeler</text></g><g class="relationship" transform="translate(196.85208380984452 -40.74783008737877) rotate(410.5784135802214)"><path class="outline" fill="#A5ABB6" stroke="none" d="M 21.40063509461097,12.933012701892217 L 21.90063509461097,12.06698729810778 A 66.38332371606073 66.38332371606073 0 0 0 41.34269406441344,19.52111893319737 L 41.135569712715736,20.499433556891518 A 67.38332371606073 67.38332371606073 0 0 1 21.40063509461097,12.933012701892217 Z M 65.17520627904145,21.202017089674655 L 65.02557119471572,20.21327579816365 A 66.38332371606073 66.38332371606073 0 0 0 84.86978292686739,13.907326531950565 L 83.5240766120589,11.22608157591156 L 91.35030554342647,11.214219290070622 L 86.66405801327869,17.482319806669235 L 85.31835169847021,14.801074850630231 A 67.38332371606073 67.38332371606073 0 0 1 65.17520627904145,21.202017089674655"/><text text-anchor="middle" pointer-events="none" font-size="8px" fill="#000000" x="53.1383961285452" y="24.432119984868493" font-family="sans-serif">road</text></g><g class="relationship" transform="translate(269.05023803054615 47.08015654120634) rotate(499.0977088320924)"><path class="outline" fill="#A5ABB6" stroke="none" d="M 25 0.5 L 27.28811591043317 0.5 L 27.28811591043317 -0.5 L 25 -0.5 Z M 79.73811667337262 0.5 L 82.0262325838058 0.5 L 82.0262325838058 3.5 L 89.0262325838058 0 L 82.0262325838058 -3.5 L 82.0262325838058 -0.5 L 79.73811667337262 -0.5 Z"/><text text-anchor="middle" pointer-events="none" font-size="8px" fill="#000000" x="53.5131162919029" y="3" transform="rotate(180 53.5131162919029 0)" font-family="sans-serif">twowheeler</text></g><g class="relationship" transform="translate(269.05023803054615 47.08015654120634) rotate(499.0977088320924)"><path class="outline" fill="#A5ABB6" stroke="none" d="M 21.40063509461097,-12.933012701892217 L 21.90063509461097,-12.06698729810778 A 66.72576759564365 66.72576759564365 0 0 1 42.57808883131891,-19.789616002064207 L 42.38797591814889,-20.771378234097 A 67.72576759564365 67.72576759564365 0 0 0 21.40063509461097,-12.933012701892217 Z M 64.24473291610121,-21.408397653635205 L 64.11212143981214,-20.417229556712968 A 66.72576759564365 66.72576759564365 0 0 1 85.2042493471503,-13.9119834066156 L 83.8581098481119,-11.23095590785162 L 91.68433676077265,-11.217829158653329 L 86.99910201253482,-17.486686738300907 L 85.65296251349642,-14.805659239536928 A 67.72576759564365 67.72576759564365 0 0 0 64.24473291610121,-21.408397653635205"/><text text-anchor="middle" pointer-events="none" font-size="8px" fill="#000000" x="53.305042494252596" y="-18.478011039990875" transform="rotate(180 53.305042494252596 -21.478011039990875)" font-family="sans-serif">trek</text></g><g class="relationship" transform="translate(99.21893649802944 -87.03447354905198) rotate(448.3071923003648)"><path class="outline" fill="#A5ABB6" stroke="none" d="M 21.40063509461097,12.933012701892217 L 21.90063509461097,12.06698729810778 A 64.34463988138076 64.34463988138076 0 0 0 21.97329125352745,12.108872243070735 L 21.47442042542196,12.975548593772281 A 65.34463988138076 65.34463988138076 0 0 1 21.40063509461097,12.933012701892217 Z M 83.25108544493806,14.811336196761822 L 82.80455868371321,13.91656591813716 A 64.34463988138076 64.34463988138076 0 0 0 82.87957378806922,13.879069249465063 L 81.53649600540359,11.196506655654815 L 89.36273280407073,11.192314855546956 L 84.67034416495673,17.455819374545392 L 83.3272663822911,14.773256780735144 A 65.34463988138076 65.34463988138076 0 0 1 83.25108544493806,14.811336196761822"/><text text-anchor="middle" pointer-events="none" font-size="8px" fill="#000000" x="52.14684814846706" y="24.158922161638472" font-family="sans-serif">PublicTransp…</text></g><g class="relationship" transform="translate(102.51915511474199 24.634191398411893) rotate(518.0021871929757)"><path class="outline" fill="#A5ABB6" stroke="none" d="M 24.018736134675446,-6.953439040707552 L 24.277555179777966,-5.987513214418485 A 138.68515096401362 138.68515096401362 0 0 1 32.304454868148426,-7.88439726504356 L 32.10351440364791,-8.86400072038981 A 139.68515096401362 139.68515096401362 0 0 0 24.018736134675446,-6.953439040707552 Z M 84.42597472890934,-9.591318351964532 L 84.25234094579538,-8.606508060912745 A 138.68515096401362 138.68515096401362 0 0 1 92.32886493426949,-6.93347250472158 L 91.63325438356755,-4.01523228812663 L 99.25402719810802,-5.796754589182869 L 93.25634566853874,-10.824459460181512 L 92.5607351178368,-7.906219243586563 A 139.68515096401362 139.68515096401362 0 0 0 84.42597472890934,-9.591318351964532"/><text text-anchor="middle" pointer-events="none" font-size="8px" fill="#000000" x="58.237332566220836" y="-8.199649796270393" transform="rotate(180 58.237332566220836 -11.199649796270393)" font-family="sans-serif">twowheeler</text></g><g class="relationship" transform="translate(-12.05722019725986 70.92096418986543) rotate(423.5632117345316)"><path class="outline" fill="#A5ABB6" stroke="none" d="M 24.018736134675446,-6.953439040707552 L 24.277555179777966,-5.987513214418485 A 113.15666419855644 113.15666419855644 0 0 1 40.993894420701444,-9.142812037134718 L 40.8828027707048,-10.13662220276045 A 114.15666419855644 114.15666419855644 0 0 0 24.018736134675446,-6.953439040707552 Z M 62.742558536727024,-10.473694951312225 L 62.66216109653791,-9.476932064959101 A 113.15666419855644 113.15666419855644 0 0 1 79.4678378778516,-6.838535544288485 L 78.78109486258126,-3.9181958327176885 L 86.3964210407285,-5.722858460586159 L 80.38349523154537,-10.73232182638288 L 79.69675221627503,-7.811982114812084 A 114.15666419855644 114.15666419855644 0 0 0 62.742558536727024,-10.473694951312225"/><text text-anchor="middle" pointer-events="none" font-size="8px" fill="#000000" x="51.81230186948222" y="-7.329723395379432" font-family="sans-serif">trek</text></g><g class="relationship" transform="translate(37.24205656658585 170.07380962875928) rotate(393.14690517374993)"><path class="outline" fill="#A5ABB6" stroke="none" d="M 24.018736134675446,6.953439040707552 L 24.277555179777966,5.987513214418485 A 119.87121146211713 119.87121146211713 0 0 0 42.67453241110397,9.405015412098777 L 42.56918622246907,10.399451021145495 A 120.87121146211713 120.87121146211713 0 0 1 24.018736134675446,6.953439040707552 Z M 64.42737961419851,10.727103782745473 L 64.3518870975096,9.72995741439027 A 119.87121146211713 119.87121146211713 0 0 0 82.8430318718343,6.865405537387528 L 82.15377903447094,3.9456571704581846 L 89.77065353422998,5.743773644694599 L 83.76203565498543,10.758403359959987 L 83.07278281762207,7.8386549930306435 A 120.87121146211713 120.87121146211713 0 0 1 64.42737961419851,10.727103782745473"/><text text-anchor="middle" pointer-events="none" font-size="8px" fill="#000000" x="53.498354465408866" y="13.558504392262861" font-family="sans-serif">trek</text></g><g class="relationship" transform="translate(99.21893649802944 -87.03447354905198) rotate(448.3071923003648)"><path class="outline" fill="#A5ABB6" stroke="none" d="M 25 0.5 L 41.458710447543965 0.5 L 41.458710447543965 -0.5 L 25 -0.5 Z M 63.25871063827883 0.5 L 79.71742108582279 0.5 L 79.71742108582279 3.5 L 86.71742108582279 0 L 79.71742108582279 -3.5 L 79.71742108582279 -0.5 L 63.25871063827883 -0.5 Z"/><text text-anchor="middle" pointer-events="none" font-size="8px" fill="#000000" x="52.358710542911396" y="3" font-family="sans-serif">trek</text></g><g class="relationship" transform="translate(99.21893649802944 -87.03447354905198) rotate(448.3071923003648)"><path class="outline" fill="#A5ABB6" stroke="none" d="M 21.40063509461097,-12.933012701892217 L 21.90063509461097,-12.06698729810778 A 64.34463988138076 64.34463988138076 0 0 1 40.35993462460182,-19.209306523119828 L 40.146816322347284,-20.18633292462807 A 65.34463988138076 65.34463988138076 0 0 0 21.40063509461097,-12.933012701892217 Z M 64.1834578359212,-20.900618302354147 L 64.02873201879262,-19.912660853111575 A 64.34463988138076 64.34463988138076 0 0 1 82.87957378806922,-13.879069249465063 L 81.53649600540359,-11.196506655654815 L 89.36273280407073,-11.192314855546956 L 84.67034416495673,-17.455819374545392 L 83.3272663822911,-14.773256780735144 A 65.34463988138076 65.34463988138076 0 0 0 64.1834578359212,-20.900618302354147"/><text text-anchor="middle" pointer-events="none" font-size="8px" fill="#000000" x="52.146848148467065" y="-18.158922161638472" font-family="sans-serif">road</text></g><g class="relationship" transform="translate(102.51915511474199 24.634191398411893) rotate(518.0021871929757)"><path class="outline" fill="#A5ABB6" stroke="none" d="M 24.018736134675446,6.953439040707552 L 24.277555179777966,5.987513214418485 A 138.68515096401362 138.68515096401362 0 0 0 47.40149272767402,10.123879852972948 L 47.30941062150951,11.119631270609062 A 139.68515096401362 139.68515096401362 0 0 1 24.018736134675446,6.953439040707552 Z M 69.16325634135472,11.423414525657648 L 69.09888770405063,10.425488336738027 A 138.68515096401362 138.68515096401362 0 0 0 92.32886493426949,6.93347250472158 L 91.63325438356755,4.01523228812663 L 99.25402719810802,5.796754589182869 L 93.25634566853874,10.824459460181512 L 92.5607351178368,7.906219243586563 A 139.68515096401362 139.68515096401362 0 0 1 69.16325634135472,11.423414525657648"/><text text-anchor="middle" pointer-events="none" font-size="8px" fill="#000000" x="58.237332566220864" y="14.199649796270393" transform="rotate(180 58.237332566220864 11.199649796270393)" font-family="sans-serif">trek</text></g><g class="relationship" transform="translate(-12.05722019725986 70.92096418986543) rotate(423.5632117345316)"><path class="outline" fill="#A5ABB6" stroke="none" d="M 24.018736134675446,6.953439040707552 L 24.277555179777966,5.987513214418485 A 113.15666419855644 113.15666419855644 0 0 0 25.990758133907278,6.43223330329171 L 25.74707918652912,7.402089256825363 A 114.15666419855644 114.15666419855644 0 0 1 24.018736134675446,6.953439040707552 Z M 77.95539797327797,8.20713034232871 L 77.74173770920245,7.23022231617928 A 113.15666419855644 113.15666419855644 0 0 0 79.4678378778516,6.838535544288485 L 78.78109486258126,3.9181958327176885 L 86.3964210407285,5.722858460586159 L 80.38349523154537,10.73232182638288 L 79.69675221627503,7.811982114812084 A 114.15666419855644 114.15666419855644 0 0 1 77.95539797327797,8.20713034232871"/><text text-anchor="middle" pointer-events="none" font-size="8px" fill="#000000" x="51.81230186948222" y="13.329723395379432" font-family="sans-serif">twowheeler</text></g><g class="relationship" transform="translate(37.24205656658585 170.07380962875928) rotate(393.14690517374993)"><path class="outline" fill="#A5ABB6" stroke="none" d="M 24.018736134675446,-6.953439040707552 L 24.277555179777966,-5.987513214418485 A 119.87121146211713 119.87121146211713 0 0 1 27.641280438796176,-6.8368457415846535 L 27.410522553817003,-7.809856943226208 A 120.87121146211713 120.87121146211713 0 0 0 24.018736134675446,-6.953439040707552 Z M 79.65685079227231,-8.59302568109942 L 79.45536076969385,-7.613535114120168 A 119.87121146211713 119.87121146211713 0 0 1 82.8430318718343,-6.865405537387528 L 82.15377903447094,-3.9456571704581846 L 89.77065353422998,-5.743773644694599 L 83.76203565498543,-10.758403359959987 L 83.07278281762207,-7.8386549930306435 A 120.87121146211713 120.87121146211713 0 0 0 79.65685079227231,-8.59302568109942"/><text text-anchor="middle" pointer-events="none" font-size="8px" fill="#000000" x="53.49835446540885" y="-7.558504392262861" font-family="sans-serif">twowheeler</text></g><g class="relationship" transform="translate(102.51915511474199 24.634191398411893) rotate(410.39544119320556)"><path class="outline" fill="#A5ABB6" stroke="none" d="M 25 0.5 L 48.618665307633904 0.5 L 48.618665307633904 -0.5 L 25 -0.5 Z M 70.41866549836877 0.5 L 94.03733080600267 0.5 L 94.03733080600267 3.5 L 101.03733080600267 0 L 94.03733080600267 -3.5 L 94.03733080600267 -0.5 L 70.41866549836877 -0.5 Z"/><text text-anchor="middle" pointer-events="none" font-size="8px" fill="#000000" x="59.518665403001336" y="3" font-family="sans-serif">trek</text></g><g class="relationship" transform="translate(102.51915511474199 24.634191398411893) rotate(325.2742241352462)"><path class="outline" fill="#A5ABB6" stroke="none" d="M 25 0.5 L 42.98795632791813 0.5 L 42.98795632791813 -0.5 L 25 -0.5 Z M 64.78795651865299 0.5 L 82.77591284657112 0.5 L 82.77591284657112 3.5 L 89.77591284657112 0 L 82.77591284657112 -3.5 L 82.77591284657112 -0.5 L 64.78795651865299 -0.5 Z"/><text text-anchor="middle" pointer-events="none" font-size="8px" fill="#000000" x="53.88795642328556" y="3" font-family="sans-serif">trek</text></g><g class="relationship" transform="translate(-12.05722019725986 70.92096418986543) rotate(477.426277314176)"><path class="outline" fill="#A5ABB6" stroke="none" d="M 24.018736134675446,-6.953439040707552 L 24.277555179777966,-5.987513214418485 A 128.53617068843158 128.53617068843158 0 0 1 29.78272139069046,-7.33327343864174 L 29.566732050109458,-8.309669160035156 A 129.53617068843158 129.53617068843158 0 0 0 24.018736134675446,-6.953439040707552 Z M 81.85276772333577,-9.066164099640773 L 81.6651166336389,-8.083928349662386 A 128.53617068843158 128.53617068843158 0 0 1 87.20691231230037,-6.8979999172335456 L 86.51461500762089,-3.9789719211476027 L 94.13336052061416,-5.769144205662397 L 88.12997538520635,-10.790037245348136 L 87.43767808052687,-7.871009249262193 A 129.53617068843158 129.53617068843158 0 0 0 81.85276772333577,-9.066164099640773"/><text text-anchor="middle" pointer-events="none" font-size="8px" fill="#000000" x="55.67841342029988" y="-7.853773287260992" transform="rotate(180 55.67841342029988 -10.853773287260992)" font-family="sans-serif">twowheeler</text></g><g class="relationship" transform="translate(-66.62006721186057 176.06531342361265) rotate(356.69843222362135)"><path class="outline" fill="#A5ABB6" stroke="none" d="M 21.40063509461097,12.933012701892217 L 21.90063509461097,12.06698729810778 A 56.398271009219854 56.398271009219854 0 0 0 37.607717856427854,18.222048095704146 L 37.38622076938505,19.19720912878102 A 57.398271009219854 57.398271009219854 0 0 1 21.40063509461097,12.933012701892217 Z M 59.232489617028435,19.8917054259368 L 59.0733782212106,18.90444478977181 A 56.398271009219854 56.398271009219854 0 0 0 75.13969103110139,13.759465197643989 L 73.80773953770613,11.071360806210851 L 81.63392652667793,11.099595778293883 L 76.91562635562842,17.343604386221504 L 75.58367486223315,14.655499994788366 A 57.398271009219854 57.398271009219854 0 0 1 59.232489617028435,19.8917054259368"/><text text-anchor="middle" pointer-events="none" font-size="8px" fill="#000000" x="48.2918789908867" y="23.094193562322374" font-family="sans-serif">trek</text></g><g class="relationship" transform="translate(-12.05722019725986 70.92096418986543) rotate(477.426277314176)"><path class="outline" fill="#A5ABB6" stroke="none" d="M 24.018736134675446,6.953439040707552 L 24.277555179777966,5.987513214418485 A 128.53617068843158 128.53617068843158 0 0 0 44.84855649975007,9.738664084724846 L 44.749778019181214,10.733773531859441 A 129.53617068843158 129.53617068843158 0 0 1 24.018736134675446,6.953439040707552 Z M 66.60594598073843,11.049997170718228 L 66.53599809055383,10.052446524054744 A 128.53617068843158 128.53617068843158 0 0 0 87.20691231230037,6.8979999172335456 L 86.51461500762089,3.9789719211476027 L 94.13336052061416,5.769144205662397 L 88.12997538520635,10.790037245348136 L 87.43767808052687,7.871009249262193 A 129.53617068843158 129.53617068843158 0 0 1 66.60594598073843,11.049997170718228"/><text text-anchor="middle" pointer-events="none" font-size="8px" fill="#000000" x="55.67841342029995" y="13.853773287260992" transform="rotate(180 55.67841342029995 10.853773287260992)" font-family="sans-serif">trek</text></g><g class="relationship" transform="translate(-66.62006721186057 176.06531342361265) rotate(356.69843222362135)"><path class="outline" fill="#A5ABB6" stroke="none" d="M 25 0.5 L 25.95906578440637 0.5 L 25.95906578440637 -0.5 L 25 -0.5 Z M 71.07573067088097 0.5 L 72.03479645528735 0.5 L 72.03479645528735 3.5 L 79.03479645528735 0 L 72.03479645528735 -3.5 L 72.03479645528735 -0.5 L 71.07573067088097 -0.5 Z"/><text text-anchor="middle" pointer-events="none" font-size="8px" fill="#000000" x="48.517398227643675" y="3" font-family="sans-serif">twowhe…</text></g><g class="relationship" transform="translate(-66.62006721186057 176.06531342361265) rotate(356.69843222362135)"><path class="outline" fill="#A5ABB6" stroke="none" d="M 21.40063509461097,-12.933012701892217 L 21.90063509461097,-12.06698729810778 A 56.398271009219854 56.398271009219854 0 0 1 36.54686772702509,-17.970279979195425 L 36.3065606638887,-18.940976901724163 A 57.398271009219854 57.398271009219854 0 0 0 21.40063509461097,-12.933012701892217 Z M 60.32624456378801,-19.704566402689764 L 60.14807762975398,-18.720566126461698 A 56.398271009219854 56.398271009219854 0 0 1 75.13969103110139,-13.759465197643989 L 73.80773953770613,-11.071360806210851 L 81.63392652667793,-11.099595778293883 L 76.91562635562842,-17.343604386221504 L 75.58367486223315,-14.655499994788366 A 57.398271009219854 57.398271009219854 0 0 0 60.32624456378801,-19.704566402689764"/><text text-anchor="middle" pointer-events="none" font-size="8px" fill="#000000" x="48.2918789908867" y="-17.094193562322374" font-family="sans-serif">road</text></g><g class="relationship" transform="translate(-66.62006721186057 176.06531342361265) rotate(407.4231911598632)"><path class="outline" fill="#A5ABB6" stroke="none" d="M 25 0.5 L 47.195927897797844 0.5 L 47.195927897797844 -0.5 L 25 -0.5 Z M 68.99592808853271 0.5 L 91.19185598633055 0.5 L 91.19185598633055 3.5 L 98.19185598633055 0 L 91.19185598633055 -3.5 L 91.19185598633055 -0.5 L 68.99592808853271 -0.5 Z"/><text text-anchor="middle" pointer-events="none" font-size="8px" fill="#000000" x="58.095927993165276" y="3" font-family="sans-serif">trek</text></g><g class="relationship" transform="translate(16.72882863721896 266.7802236759857) rotate(343.52628874018103)"><path class="outline" fill="#A5ABB6" stroke="none" d="M 25 0.5 L 46.10757588597618 0.5 L 46.10757588597618 -0.5 L 25 -0.5 Z M 67.90757607671105 0.5 L 89.01515196268723 0.5 L 89.01515196268723 3.5 L 96.01515196268723 0 L 89.01515196268723 -3.5 L 89.01515196268723 -0.5 L 67.90757607671105 -0.5 Z"/><text text-anchor="middle" pointer-events="none" font-size="8px" fill="#000000" x="57.007575981343614" y="3" font-family="sans-serif">trek</text></g></g><g class="layer nodes"><g class="node" transform="translate(99.21893649802944,-87.03447354905198)"><circle class="outline" cx="0" cy="0" r="25" fill="#F16667" stroke="#eb2728" stroke-width="2px"/><text text-anchor="middle" pointer-events="none" font-family="sans-serif" dy="1.5625" font-size="25" fill="#FFFFFF"/><text text-anchor="middle" pointer-events="none" x="0" y="5" font-size="10px" fill="#FFFFFF" font-family="sans-serif"> Darjeeli…</text></g><g class="node" transform="translate(132.77630223423387,232.46330545330133)"><circle class="outline" cx="0" cy="0" r="25" fill="#D9C8AE" stroke="#c0a378" stroke-width="2px"/><text text-anchor="middle" pointer-events="none" font-family="sans-serif" dy="1.5625" font-size="25" fill="#2A2C34"/><text text-anchor="middle" pointer-events="none" x="0" y="5" font-size="10px" fill="#2A2C34" font-family="sans-serif"> Sandak…</text></g><g class="node" transform="translate(196.85208380984452,-40.74783008737877)"><circle class="outline" cx="0" cy="0" r="25" fill="#8DCC93" stroke="#5db665" stroke-width="2px"/><text text-anchor="middle" pointer-events="none" font-family="sans-serif" dy="1.5625" font-size="25" fill="#2A2C34"/><text text-anchor="middle" pointer-events="none" x="0" y="5" font-size="10px" fill="#2A2C34" font-family="sans-serif"> Tumbling</text></g><g class="node" transform="translate(269.05023803054615,47.08015654120634)"><circle class="outline" cx="0" cy="0" r="25" fill="#8DCC93" stroke="#5db665" stroke-width="2px"/><text text-anchor="middle" pointer-events="none" font-family="sans-serif" dy="1.5625" font-size="25" fill="#2A2C34"/><text text-anchor="middle" pointer-events="none" x="0" y="5" font-size="10px" fill="#2A2C34" font-family="sans-serif"> Gairibus</text></g><g class="node" transform="translate(182.86610006574284,121.74123127576881)"><circle class="outline" cx="0" cy="0" r="25" fill="#8DCC93" stroke="#5db665" stroke-width="2px"/><text text-anchor="middle" pointer-events="none" font-family="sans-serif" dy="1.5625" font-size="25" fill="#2A2C34"/><text text-anchor="middle" pointer-events="none" x="0" y="5" font-size="10px" fill="#2A2C34" font-family="sans-serif"> BhikeB…</text></g><g class="node" transform="translate(102.51915511474199,24.634191398411893)"><circle class="outline" cx="0" cy="0" r="25" fill="#F16667" stroke="#eb2728" stroke-width="2px"/><text text-anchor="middle" pointer-events="none" font-family="sans-serif" dy="1.5625" font-size="25" fill="#FFFFFF"/><text text-anchor="middle" pointer-events="none" x="0" y="5" font-size="10px" fill="#FFFFFF" font-family="sans-serif"> Rimbik</text></g><g class="node" transform="translate(-12.05722019725986,70.92096418986543)"><circle class="outline" cx="0" cy="0" r="25" fill="#8DCC93" stroke="#5db665" stroke-width="2px"/><text text-anchor="middle" pointer-events="none" font-family="sans-serif" dy="1.5625" font-size="25" fill="#2A2C34"/><text text-anchor="middle" pointer-events="none" x="0" y="5" font-size="10px" fill="#2A2C34" font-family="sans-serif"> Sirikhola</text></g><g class="node" transform="translate(37.24205656658585,170.07380962875928)"><circle class="outline" cx="0" cy="0" r="25" fill="#8DCC93" stroke="#5db665" stroke-width="2px"/><text text-anchor="middle" pointer-events="none" font-family="sans-serif" dy="1.5625" font-size="25" fill="#2A2C34"/><text text-anchor="middle" pointer-events="none" x="0" y="5" font-size="10px" fill="#2A2C34" font-family="sans-serif"> Gurdum</text></g><g class="node" transform="translate(-66.62006721186057,176.06531342361265)"><circle class="outline" cx="0" cy="0" r="25" fill="#8DCC93" stroke="#5db665" stroke-width="2px"/><text text-anchor="middle" pointer-events="none" font-family="sans-serif" dy="1.5625" font-size="25" fill="#2A2C34"/><text text-anchor="middle" pointer-events="none" x="0" y="5" font-size="10px" fill="#2A2C34" font-family="sans-serif"> Ramm…</text></g><g class="node" transform="translate(16.72882863721896,266.7802236759857)"><circle class="outline" cx="0" cy="0" r="25" fill="#D9C8AE" stroke="#c0a378" stroke-width="2px"/><text text-anchor="middle" pointer-events="none" font-family="sans-serif" dy="1.5625" font-size="25" fill="#2A2C34"/><text text-anchor="middle" pointer-events="none" x="0" y="5" font-size="10px" fill="#2A2C34" font-family="sans-serif"> Sabarg…</text></g></g></svg>