<svg xmlns="http://www.w3.org/2000/svg" width="285.6643371582031" height="265.81219482421875" viewBox="-31.814510345458984 -40.46617126464844 285.6643371582031 265.81219482421875"><title>Neo4j Graph Visualization</title><desc>Created using Neo4j (http://www.neo4j.com/)</desc><g class="layer relationships"><g class="relationship" transform="translate(162.16302263912974 196.34603648614632) rotate(243.84087985190467)"><path class="outline" fill="#A5ABB6" stroke="none" d="M 25 0.5 L 31.529226408215088 0.5 L 31.529226408215088 -0.5 L 25 -0.5 Z M 76.8958912946897 0.5 L 83.42511770290479 0.5 L 83.42511770290479 3.5 L 90.42511770290479 0 L 83.42511770290479 -3.5 L 83.42511770290479 -0.5 L 76.8958912946897 -0.5 Z"/><text text-anchor="middle" pointer-events="none" font-size="8px" fill="#000000" x="54.21255885145239" y="3" transform="rotate(180 54.21255885145239 0)" font-family="sans-serif">ACTED_IN</text></g><g class="relationship" transform="translate(224.84984402799694 91.76267306532719) rotate(539.5051788484578)"><path class="outline" fill="#A5ABB6" stroke="none" d="M 25 0.5 L 35.430674322175406 0.5 L 35.430674322175406 -0.5 L 25 -0.5 Z M 71.14734149746837 0.5 L 81.57801581964378 0.5 L 81.57801581964378 3.5 L 88.57801581964378 0 L 81.57801581964378 -3.5 L 81.57801581964378 -0.5 L 71.14734149746837 -0.5 Z"/><text text-anchor="middle" pointer-events="none" font-size="8px" fill="#000000" x="53.28900790982189" y="3" transform="rotate(180 53.28900790982189 0)" font-family="sans-serif">WROTE</text></g><g class="relationship" transform="translate(156.38406898515828 -11.46616907411156) rotate(473.40575731895206)"><path class="outline" fill="#A5ABB6" stroke="none" d="M 25 0.5 L 29.86008465295805 0.5 L 29.86008465295805 -0.5 L 25 -0.5 Z M 76.69341671472563 0.5 L 81.55350136768368 0.5 L 81.55350136768368 3.5 L 88.55350136768368 0 L 81.55350136768368 -3.5 L 81.55350136768368 -0.5 L 76.69341671472563 -0.5 Z"/><text text-anchor="middle" pointer-events="none" font-size="8px" fill="#000000" x="53.27675068384184" y="3" transform="rotate(180 53.27675068384184 0)" font-family="sans-serif">DIRECTED</text></g><g class="relationship" transform="translate(35.65250403432471 5.594962425868109) rotate(409.0500496057339)"><path class="outline" fill="#A5ABB6" stroke="none" d="M 25 0.5 L 31.509386113736397 0.5 L 31.509386113736397 -0.5 L 25 -0.5 Z M 76.876051000211 0.5 L 83.3854371139474 0.5 L 83.3854371139474 3.5 L 90.3854371139474 0 L 83.3854371139474 -3.5 L 83.3854371139474 -0.5 L 76.876051000211 -0.5 Z"/><text text-anchor="middle" pointer-events="none" font-size="8px" fill="#000000" x="54.1927185569737" y="3" font-family="sans-serif">ACTED_IN</text></g><g class="relationship" transform="translate(-2.8145098853908532 106.3366754515208) rotate(353.2056209452903)"><path class="outline" fill="#A5ABB6" stroke="none" d="M 25 0.5 L 31.26541006226605 0.5 L 31.26541006226605 -0.5 L 25 -0.5 Z M 76.63207494874067 0.5 L 82.89748501100671 0.5 L 82.89748501100671 3.5 L 89.89748501100671 0 L 82.89748501100671 -3.5 L 82.89748501100671 -0.5 L 76.63207494874067 -0.5 Z"/><text text-anchor="middle" pointer-events="none" font-size="8px" fill="#000000" x="53.948742505503354" y="3" font-family="sans-serif">ACTED_IN</text></g><g class="relationship" transform="translate(54.37639684492284 192.58764383369063) rotate(299.6781734316804)"><path class="outline" fill="#A5ABB6" stroke="none" d="M 25 0.5 L 36.101250427578215 0.5 L 36.101250427578215 -0.5 L 25 -0.5 Z M 71.81791760287118 0.5 L 82.9191680304494 0.5 L 82.9191680304494 3.5 L 89.9191680304494 0 L 82.9191680304494 -3.5 L 82.9191680304494 -0.5 L 71.81791760287118 -0.5 Z"/><text text-anchor="middle" pointer-events="none" font-size="8px" fill="#000000" x="53.9595840152247" y="3" font-family="sans-serif">WROTE</text></g></g><g class="layer nodes"><g class="node" transform="translate(111.27606378776717,92.74354995426255)"><circle class="outline" cx="0" cy="0" r="25" fill="#57C7E3" stroke="#23b3d7" stroke-width="2px"/><text text-anchor="middle" pointer-events="none" font-family="sans-serif" dy="1.5625" font-size="25" fill="#2A2C34"/><text text-anchor="middle" pointer-events="none" font-family="sans-serif" dy="1.5625" font-size="25" fill="#2A2C34"/><text text-anchor="middle" pointer-events="none" x="0" y="0" font-size="10px" fill="#2A2C34" font-family="sans-serif"> Captain</text><text text-anchor="middle" pointer-events="none" x="0" y="10" font-size="10px" fill="#2A2C34" font-family="sans-serif"> Americ…</text></g><g class="node" transform="translate(162.16302263912974,196.34603648614632)"><circle class="outline" cx="0" cy="0" r="25" fill="#F79767" stroke="#f36924" stroke-width="2px"/><text text-anchor="middle" pointer-events="none" font-family="sans-serif" dy="1.5625" font-size="25" fill="#FFFFFF"/><text text-anchor="middle" pointer-events="none" font-family="sans-serif" dy="1.5625" font-size="25" fill="#FFFFFF"/><text text-anchor="middle" pointer-events="none" x="0" y="0" font-size="10px" fill="#FFFFFF" font-family="sans-serif"> Hugo</text><text text-anchor="middle" pointer-events="none" x="0" y="10" font-size="10px" fill="#FFFFFF" font-family="sans-serif"> Weavi…</text></g><g class="node" transform="translate(224.84984402799694,91.76267306532719)"><circle class="outline" cx="0" cy="0" r="25" fill="#F79767" stroke="#f36924" stroke-width="2px"/><text text-anchor="middle" pointer-events="none" font-family="sans-serif" dy="1.5625" font-size="25" fill="#FFFFFF"/><text text-anchor="middle" pointer-events="none" x="0" y="5" font-size="10px" fill="#FFFFFF" font-family="sans-serif"> Christo…</text></g><g class="node" transform="translate(156.38406898515828,-11.46616907411156)"><circle class="outline" cx="0" cy="0" r="25" fill="#F79767" stroke="#f36924" stroke-width="2px"/><text text-anchor="middle" pointer-events="none" font-family="sans-serif" dy="1.5625" font-size="25" fill="#FFFFFF"/><text text-anchor="middle" pointer-events="none" font-family="sans-serif" dy="1.5625" font-size="25" fill="#FFFFFF"/><text text-anchor="middle" pointer-events="none" x="0" y="0" font-size="10px" fill="#FFFFFF" font-family="sans-serif"> Joe</text><text text-anchor="middle" pointer-events="none" x="0" y="10" font-size="10px" fill="#FFFFFF" font-family="sans-serif"> Johnst…</text></g><g class="node" transform="translate(35.65250403432471,5.594962425868109)"><circle class="outline" cx="0" cy="0" r="25" fill="#F79767" stroke="#f36924" stroke-width="2px"/><text text-anchor="middle" pointer-events="none" font-family="sans-serif" dy="1.5625" font-size="25" fill="#FFFFFF"/><text text-anchor="middle" pointer-events="none" font-family="sans-serif" dy="1.5625" font-size="25" fill="#FFFFFF"/><text text-anchor="middle" pointer-events="none" x="0" y="0" font-size="10px" fill="#FFFFFF" font-family="sans-serif"> Samuel</text><text text-anchor="middle" pointer-events="none" x="0" y="10" font-size="10px" fill="#FFFFFF" font-family="sans-serif"> L. Jack…</text></g><g class="node" transform="translate(-2.8145098853908532,106.3366754515208)"><circle class="outline" cx="0" cy="0" r="25" fill="#F79767" stroke="#f36924" stroke-width="2px"/><text text-anchor="middle" pointer-events="none" font-family="sans-serif" dy="1.5625" font-size="25" fill="#FFFFFF"/><text text-anchor="middle" pointer-events="none" font-family="sans-serif" dy="1.5625" font-size="25" fill="#FFFFFF"/><text text-anchor="middle" pointer-events="none" x="0" y="0" font-size="10px" fill="#FFFFFF" font-family="sans-serif"> Chris</text><text text-anchor="middle" pointer-events="none" x="0" y="10" font-size="10px" fill="#FFFFFF" font-family="sans-serif"> Evans</text></g><g class="node" transform="translate(54.37639684492284,192.58764383369063)"><circle class="outline" cx="0" cy="0" r="25" fill="#F79767" stroke="#f36924" stroke-width="2px"/><text text-anchor="middle" pointer-events="none" font-family="sans-serif" dy="1.5625" font-size="25" fill="#FFFFFF"/><text text-anchor="middle" pointer-events="none" font-family="sans-serif" dy="1.5625" font-size="25" fill="#FFFFFF"/><text text-anchor="middle" pointer-events="none" x="0" y="0" font-size="10px" fill="#FFFFFF" font-family="sans-serif"> Stephen</text><text text-anchor="middle" pointer-events="none" x="0" y="10" font-size="10px" fill="#FFFFFF" font-family="sans-serif"> McFeely</text></g></g></svg>