<svg xmlns="http://www.w3.org/2000/svg" width="363.1986389160156" height="364.603271484375" viewBox="-89.83844757080078 -76.4233169555664 363.1986389160156 364.603271484375"><title>Neo4j Graph Visualization</title><desc>Created using Neo4j (http://www.neo4j.com/)</desc><g class="layer relationships"><g class="relationship" transform="translate(135.1016056627838 259.1799599265352) rotate(330.2307452405918)"><path class="outline" fill="#A5ABB6" stroke="none" d="M 21.40063509461097,12.933012701892217 L 21.90063509461097,12.06698729810778 A 57.572489159870166 57.572489159870166 0 0 0 24.36356004481211,13.410037666563973 L 23.90633959084428,14.29939105890778 A 58.572489159870166 58.572489159870166 0 0 1 21.40063509461097,12.933012701892217 Z M 74.13941307488292,15.8800433153569 L 73.73901121836758,14.963703665827829 A 57.572489159870166 57.572489159870166 0 0 0 76.28150197335721,13.778155538029695 L 74.94781173315904,11.090913393525378 L 82.77401535056697,11.114085334984699 L 78.05975562695475,17.361145064035455 L 76.72606538675659,14.673902919531136 A 58.572489159870166 58.572489159870166 0 0 1 74.13941307488292,15.8800433153569"/><text text-anchor="middle" pointer-events="none" font-size="8px" fill="#000000" x="48.860453476150795" y="23.251509898623937" font-family="sans-serif">PRODUCED</text></g><g class="relationship" transform="translate(135.1016056627838 259.1799599265352) rotate(330.2307452405918)"><path class="outline" fill="#A5ABB6" stroke="none" d="M 25 0.5 L 25.667183913167683 0.5 L 25.667183913167683 -0.5 L 25 -0.5 Z M 72.50051597493527 0.5 L 73.16769988810294 0.5 L 73.16769988810294 3.5 L 80.16769988810294 0 L 73.16769988810294 -3.5 L 73.16769988810294 -0.5 L 72.50051597493527 -0.5 Z"/><text text-anchor="middle" pointer-events="none" font-size="8px" fill="#000000" x="49.08384994405147" y="3" font-family="sans-serif">DIRECTED</text></g><g class="relationship" transform="translate(135.1016056627838 259.1799599265352) rotate(330.2307452405918)"><path class="outline" fill="#A5ABB6" stroke="none" d="M 21.40063509461097,-12.933012701892217 L 21.90063509461097,-12.06698729810778 A 57.572489159870166 57.572489159870166 0 0 1 31.542898429051366,-16.504153152379985 L 31.210378825941365,-17.447249496105037 A 58.572489159870166 58.572489159870166 0 0 0 21.40063509461097,-12.933012701892217 Z M 66.65191608656727,-18.5624658656715 L 66.3793472297368,-17.600329587233702 A 57.572489159870166 57.572489159870166 0 0 1 76.28150197335721,-13.778155538029695 L 74.94781173315904,-11.090913393525378 L 82.77401535056697,-11.114085334984699 L 78.05975562695475,-17.361145064035455 L 76.72606538675659,-14.673902919531136 A 58.572489159870166 58.572489159870166 0 0 0 66.65191608656727,-18.5624658656715"/><text text-anchor="middle" pointer-events="none" font-size="8px" fill="#000000" x="48.860453476150774" y="-17.251509898623937" font-family="sans-serif">WROTE</text></g><g class="relationship" transform="translate(244.3601992957192 17.17477483302349) rotate(203.62633065132155)"><path class="outline" fill="#A5ABB6" stroke="none" d="M 24.018736134675446,6.953439040707552 L 24.277555179777966,5.987513214418485 A 99.64545891986592 99.64545891986592 0 0 0 25.397044953058913,6.280523176974725 L 25.149460637420393,7.249389528258433 A 100.64545891986592 100.64545891986592 0 0 1 24.018736134675446,6.953439040707552 Z M 71.78265082759866,8.012358344102992 L 71.56689391859923,7.035911235336201 A 99.64545891986592 99.64545891986592 0 0 0 72.69536985826346,6.77968039363939 L 72.01412439869144,3.858053342865714 L 79.62604055333071,5.677045496433596 L 73.60369713769283,10.675183128004292 L 72.92245167812081,7.753556077230616 A 100.64545891986592 100.64545891986592 0 0 1 71.78265082759866,8.012358344102992"/><text text-anchor="middle" pointer-events="none" font-size="8px" fill="#000000" x="48.42943025458511" y="12.869448884968094" transform="rotate(180 48.42943025458511 9.869448884968094)" font-family="sans-serif">DIRECTED</text></g><g class="relationship" transform="translate(244.3601992957192 17.17477483302349) rotate(203.62633065132155)"><path class="outline" fill="#A5ABB6" stroke="none" d="M 24.018736134675446,-6.953439040707552 L 24.277555179777966,-5.987513214418485 A 99.64545891986592 99.64545891986592 0 0 1 30.79067791438865,-7.500441206523178 L 30.597221835197583,-8.481550143096484 A 100.64545891986592 100.64545891986592 0 0 0 24.018736134675446,-6.953439040707552 Z M 66.29749727402427,-9.065644792546905 L 66.1362401269857,-8.078732368605955 A 99.64545891986592 99.64545891986592 0 0 1 72.69536985826346,-6.77968039363939 L 72.01412439869144,-3.858053342865714 L 79.62604055333071,-5.677045496433596 L 73.60369713769283,-10.675183128004292 L 72.92245167812081,-7.753556077230616 A 100.64545891986592 100.64545891986592 0 0 0 66.29749727402427,-9.065644792546905"/><text text-anchor="middle" pointer-events="none" font-size="8px" fill="#000000" x="48.429430254585085" y="-6.869448884968094" transform="rotate(180 48.429430254585085 -9.869448884968094)" font-family="sans-serif">WROTE</text></g><g class="relationship" transform="translate(47.7980060440391 -47.42331818240934) rotate(372.7532287496133)"><path class="outline" fill="#A5ABB6" stroke="none" d="M 24.018736134675446,6.953439040707552 L 24.277555179777966,5.987513214418485 A 99.43288892437039 99.43288892437039 0 0 0 25.345232498835408,6.267254708607709 L 25.097151121426215,7.235993904770822 A 100.43288892437039 100.43288892437039 0 0 1 24.018736134675446,6.953439040707552 Z M 71.72900575778725,7.999672682096119 L 71.51277852936238,7.023329614477106 A 99.43288892437039 99.43288892437039 0 0 0 72.58904336636944,6.77869895036676 L 71.90788958312054,3.857050524637595 L 79.51974865694564,5.676281527074181 L 73.49724841070132,10.674230184672313 L 72.81609462745242,7.752581758943148 A 100.43288892437039 100.43288892437039 0 0 1 71.72900575778725,7.999672682096119"/><text text-anchor="middle" pointer-events="none" font-size="8px" fill="#000000" x="48.37632284101401" y="12.86220852231095" font-family="sans-serif">DIRECTED</text></g><g class="relationship" transform="translate(47.7980060440391 -47.42331818240934) rotate(372.7532287496133)"><path class="outline" fill="#A5ABB6" stroke="none" d="M 24.018736134675446,-6.953439040707552 L 24.277555179777966,-5.987513214418485 A 99.43288892437039 99.43288892437039 0 0 1 30.73825050458536,-7.489607808916745 L 30.544406895625716,-8.470640252450352 A 100.43288892437039 100.43288892437039 0 0 0 24.018736134675446,-6.953439040707552 Z M 66.2442429143311,-9.05528796449353 L 66.08262690840712,-8.068434243504868 A 99.43288892437039 99.43288892437039 0 0 1 72.58904336636944,-6.77869895036676 L 71.90788958312054,-3.857050524637595 L 79.51974865694564,-5.676281527074181 L 73.49724841070132,-10.674230184672313 L 72.81609462745242,-7.752581758943148 A 100.43288892437039 100.43288892437039 0 0 0 66.2442429143311,-9.05528796449353"/><text text-anchor="middle" pointer-events="none" font-size="8px" fill="#000000" x="48.37632284101401" y="-6.862208522310951" font-family="sans-serif">WROTE</text></g><g class="relationship" transform="translate(-60.838449231815105 94.66199893019316) rotate(432.33696685190046)"><path class="outline" fill="#A5ABB6" stroke="none" d="M 21.40063509461097,12.933012701892217 L 21.90063509461097,12.06698729810778 A 57.1737905175635 57.1737905175635 0 0 0 31.35566035726429,16.430800167287572 L 31.021033777096388,17.373150978740043 A 58.1737905175635 58.1737905175635 0 0 1 21.40063509461097,12.933012701892217 Z M 66.45674147458763,18.492054431481392 L 66.18223278297377,17.530469813141202 A 57.1737905175635 57.1737905175635 0 0 0 75.89372862923514,13.771851196856893 L 74.56062487421801,11.084318056901369 L 82.38682324830089,11.109197958476154 L 77.67120030259133,17.35522871679759 L 76.3380965475742,14.667695576842068 A 58.1737905175635 58.1737905175635 0 0 1 66.45674147458763,18.492054431481392"/><text text-anchor="middle" pointer-events="none" font-size="8px" fill="#000000" x="48.66735341653906" y="23.19809337369334" font-family="sans-serif">WROTE</text></g><g class="relationship" transform="translate(-60.838449231815105 94.66199893019316) rotate(432.33696685190046)"><path class="outline" fill="#A5ABB6" stroke="none" d="M 25 0.5 L 25.474800343081327 0.5 L 25.474800343081327 -0.5 L 25 -0.5 Z M 72.3081324048489 0.5 L 72.78293274793023 0.5 L 72.78293274793023 3.5 L 79.78293274793023 0 L 72.78293274793023 -3.5 L 72.78293274793023 -0.5 L 72.3081324048489 -0.5 Z"/><text text-anchor="middle" pointer-events="none" font-size="8px" fill="#000000" x="48.891466373965116" y="3" font-family="sans-serif">DIRECTED</text></g><g class="relationship" transform="translate(-60.838449231815105 94.66199893019316) rotate(432.33696685190046)"><path class="outline" fill="#A5ABB6" stroke="none" d="M 21.40063509461097,-12.933012701892217 L 21.90063509461097,-12.06698729810778 A 57.1737905175635 57.1737905175635 0 0 1 24.185223982436185,-13.317498214728566 L 23.72518265698171,-14.20539571944073 A 58.1737905175635 58.1737905175635 0 0 0 21.40063509461097,-12.933012701892217 Z M 73.93790713872761,-15.79089222691288 L 73.53479816857626,-14.875740240528366 A 57.1737905175635 57.1737905175635 0 0 1 75.89372862923514,-13.771851196856893 L 74.56062487421801,-11.084318056901369 L 82.38682324830089,-11.109197958476154 L 77.67120030259133,-17.35522871679759 L 76.3380965475742,-14.667695576842068 A 58.1737905175635 58.1737905175635 0 0 0 73.93790713872761,-15.79089222691288"/><text text-anchor="middle" pointer-events="none" font-size="8px" fill="#000000" x="48.66735341653904" y="-17.19809337369334" font-family="sans-serif">PRODUCED</text></g></g><g class="layer nodes"><g class="node" transform="translate(135.1016056627838,259.1799599265352)"><circle class="outline" cx="0" cy="0" r="25" fill="#F79767" stroke="#f36924" stroke-width="2px"/><text text-anchor="middle" pointer-events="none" font-family="sans-serif" dy="1.5625" font-size="25" fill="#FFFFFF"/><text text-anchor="middle" pointer-events="none" x="0" y="5" font-size="10px" fill="#FFFFFF" font-family="sans-serif"> Cameron</text></g><g class="node" transform="translate(226.39053531772117,206.96333017881992)"><circle class="outline" cx="0" cy="0" r="25" fill="#57C7E3" stroke="#23b3d7" stroke-width="2px"/><text text-anchor="middle" pointer-events="none" font-family="sans-serif" dy="1.5625" font-size="25" fill="#2A2C34"/><text text-anchor="middle" pointer-events="none" font-family="sans-serif" dy="1.5625" font-size="25" fill="#2A2C34"/><text text-anchor="middle" pointer-events="none" x="0" y="0" font-size="10px" fill="#2A2C34" font-family="sans-serif"> Jerry</text><text text-anchor="middle" pointer-events="none" x="0" y="10" font-size="10px" fill="#2A2C34" font-family="sans-serif"> Maguire</text></g><g class="node" transform="translate(244.3601992957192,17.17477483302349)"><circle class="outline" cx="0" cy="0" r="25" fill="#F79767" stroke="#f36924" stroke-width="2px"/><text text-anchor="middle" pointer-events="none" font-family="sans-serif" dy="1.5625" font-size="25" fill="#FFFFFF"/><text text-anchor="middle" pointer-events="none" font-family="sans-serif" dy="1.5625" font-size="25" fill="#FFFFFF"/><text text-anchor="middle" pointer-events="none" x="0" y="0" font-size="10px" fill="#FFFFFF" font-family="sans-serif"> Lana</text><text text-anchor="middle" pointer-events="none" x="0" y="10" font-size="10px" fill="#FFFFFF" font-family="sans-serif"> Wacho…</text></g><g class="node" transform="translate(149.1024182530586,-24.494468899464625)"><circle class="outline" cx="0" cy="0" r="25" fill="#57C7E3" stroke="#23b3d7" stroke-width="2px"/><text text-anchor="middle" pointer-events="none" font-family="sans-serif" dy="1.5625" font-size="25" fill="#2A2C34"/><text text-anchor="middle" pointer-events="none" font-family="sans-serif" dy="1.5625" font-size="25" fill="#2A2C34"/><text text-anchor="middle" pointer-events="none" x="0" y="0" font-size="10px" fill="#2A2C34" font-family="sans-serif"> Speed</text><text text-anchor="middle" pointer-events="none" x="0" y="10" font-size="10px" fill="#2A2C34" font-family="sans-serif"> Racer</text></g><g class="node" transform="translate(47.7980060440391,-47.42331818240934)"><circle class="outline" cx="0" cy="0" r="25" fill="#F79767" stroke="#f36924" stroke-width="2px"/><text text-anchor="middle" pointer-events="none" font-family="sans-serif" dy="1.5625" font-size="25" fill="#FFFFFF"/><text text-anchor="middle" pointer-events="none" font-family="sans-serif" dy="1.5625" font-size="25" fill="#FFFFFF"/><text text-anchor="middle" pointer-events="none" x="0" y="0" font-size="10px" fill="#FFFFFF" font-family="sans-serif"> Lilly</text><text text-anchor="middle" pointer-events="none" x="0" y="10" font-size="10px" fill="#FFFFFF" font-family="sans-serif"> Wacho…</text></g><g class="node" transform="translate(-60.838449231815105,94.66199893019316)"><circle class="outline" cx="0" cy="0" r="25" fill="#F79767" stroke="#f36924" stroke-width="2px"/><text text-anchor="middle" pointer-events="none" font-family="sans-serif" dy="1.5625" font-size="25" fill="#FFFFFF"/><text text-anchor="middle" pointer-events="none" font-family="sans-serif" dy="1.5625" font-size="25" fill="#FFFFFF"/><text text-anchor="middle" pointer-events="none" x="0" y="0" font-size="10px" fill="#FFFFFF" font-family="sans-serif"> Nancy</text><text text-anchor="middle" pointer-events="none" x="0" y="10" font-size="10px" fill="#FFFFFF" font-family="sans-serif"> Meyers</text></g><g class="node" transform="translate(-29.0453849938988,194.50519630297865)"><circle class="outline" cx="0" cy="0" r="25" fill="#57C7E3" stroke="#23b3d7" stroke-width="2px"/><text text-anchor="middle" pointer-events="none" font-family="sans-serif" dy="1.5625" font-size="25" fill="#2A2C34"/><text text-anchor="middle" pointer-events="none" x="0" y="5" font-size="10px" fill="#2A2C34" font-family="sans-serif"> Someth…</text></g></g></svg>